# Blender v2.78 (sub 0) OBJ File: 'moeda.blend'
# www.blender.org
mtllib moeda.mtl
o Cylinder
v 0.070329 0.756833 -0.549871
v 0.070329 0.289084 -0.889710
v 0.070329 -0.289084 -0.889710
v 0.070329 -0.756833 -0.549871
v 0.070329 -0.756833 0.549871
v 0.070329 -0.289084 0.889710
v 0.070329 0.289084 0.889710
v 0.070329 0.756833 0.549871
v 0.070329 0.809017 -0.587785
v 0.070329 0.309017 -0.951057
v 0.070329 -0.309017 -0.951056
v 0.070329 -0.809017 -0.587785
v 0.070329 -0.809017 0.587785
v 0.070329 -0.309017 0.951056
v 0.070329 0.309017 0.951056
v 0.070329 0.809017 0.587785
v 0.042470 0.427367 -0.310500
v 0.042470 0.163239 -0.502399
v 0.042470 -0.163240 -0.502399
v 0.042470 -0.427367 -0.310500
v 0.042470 -0.427366 0.310500
v 0.042470 -0.163240 0.502399
v 0.042470 0.163240 0.502399
v 0.042470 0.427367 0.310500
v 0.042470 0.756833 -0.549871
v 0.042470 0.289084 -0.889710
v 0.042470 -0.289084 -0.889710
v 0.042470 -0.756833 -0.549871
v 0.042470 -0.756833 0.549871
v 0.042470 -0.289084 0.889710
v 0.042470 0.289084 0.889710
v 0.042470 0.756833 0.549871
v 0.052551 0.427367 -0.310500
v 0.052551 0.163239 -0.502399
v 0.052551 -0.163240 -0.502399
v 0.052551 -0.427367 -0.310500
v 0.052551 -0.427366 0.310500
v 0.052551 -0.163240 0.502399
v 0.052551 0.163240 0.502399
v 0.052551 0.427367 0.310500
v 0.070329 0.935497 -0.000000
v 0.070329 0.756833 0.549871
v 0.070329 0.289084 0.889710
v 0.070329 -0.289084 0.889710
v 0.070329 -0.756833 0.549871
v 0.070329 -0.935497 -0.000000
v 0.070329 -0.756833 -0.549871
v 0.070329 -0.289084 -0.889710
v 0.070329 0.289084 -0.889710
v 0.070329 0.756833 -0.549871
v 0.070329 0.809017 0.587785
v 0.070329 1.000000 -0.000000
v 0.070329 0.309017 0.951057
v 0.070329 -0.309017 0.951056
v 0.070329 -0.809017 0.587785
v 0.070329 -1.000000 -0.000000
v 0.070329 -0.809017 -0.587785
v 0.070329 -0.309017 -0.951056
v 0.070329 0.309017 -0.951056
v 0.070329 0.809017 -0.587785
v 0.042470 0.528254 -0.000000
v 0.042470 0.427367 0.310500
v 0.042470 0.163239 0.502399
v 0.042470 -0.163240 0.502399
v 0.042470 -0.427367 0.310500
v 0.042470 -0.528254 -0.000000
v 0.042470 -0.427366 -0.310500
v 0.042470 -0.163240 -0.502399
v 0.042470 0.163240 -0.502399
v 0.042470 0.427367 -0.310500
v 0.042470 0.756833 0.549871
v 0.042470 0.935497 -0.000000
v 0.042470 0.289084 0.889710
v 0.042470 -0.289084 0.889710
v 0.042470 -0.756833 0.549871
v 0.042470 -0.935497 -0.000000
v 0.042470 -0.756833 -0.549871
v 0.042470 -0.289084 -0.889710
v 0.042470 0.289084 -0.889710
v 0.042470 0.756833 -0.549871
v 0.052551 0.528254 -0.000000
v 0.052551 0.427367 0.310500
v 0.052551 0.163239 0.502399
v 0.052551 -0.163240 0.502399
v 0.052551 -0.427367 0.310500
v 0.052551 -0.528254 -0.000000
v 0.052551 -0.427366 -0.310500
v 0.052551 -0.163240 -0.502399
v 0.052551 0.163240 -0.502399
v 0.052551 0.427367 -0.310500
v -0.070329 0.756833 -0.549871
v -0.070329 0.289084 -0.889710
v -0.070329 -0.289084 -0.889710
v -0.070329 -0.756833 -0.549871
v -0.070329 -0.756833 0.549871
v -0.070329 -0.289084 0.889710
v -0.070329 0.289084 0.889710
v -0.070329 0.756833 0.549871
v 0.000000 0.809017 -0.587785
v -0.000000 0.309017 -0.951057
v -0.000000 -0.309017 -0.951056
v -0.000000 -0.809017 -0.587785
v -0.000000 -0.809017 0.587785
v 0.000000 -0.309017 0.951056
v 0.000000 0.309017 0.951056
v 0.000000 0.809017 0.587785
v -0.070329 0.809017 -0.587785
v -0.070329 0.309017 -0.951057
v -0.070329 -0.309017 -0.951056
v -0.070329 -0.809017 -0.587785
v -0.070329 -0.809017 0.587785
v -0.070329 -0.309017 0.951056
v -0.070329 0.309017 0.951056
v -0.070329 0.809017 0.587785
v -0.042470 0.427367 -0.310500
v -0.042470 0.163239 -0.502399
v -0.042470 -0.163240 -0.502399
v -0.042470 -0.427367 -0.310500
v -0.042470 -0.427366 0.310500
v -0.042470 -0.163240 0.502399
v -0.042470 0.163240 0.502399
v -0.042470 0.427367 0.310500
v -0.042470 0.756833 -0.549871
v -0.042470 0.289084 -0.889710
v -0.042470 -0.289084 -0.889710
v -0.042470 -0.756833 -0.549871
v -0.042470 -0.756833 0.549871
v -0.042470 -0.289084 0.889710
v -0.042470 0.289084 0.889710
v -0.042470 0.756833 0.549871
v -0.052551 0.427367 -0.310500
v -0.052551 0.163239 -0.502399
v -0.052551 -0.163240 -0.502399
v -0.052551 -0.427367 -0.310500
v -0.052551 -0.427366 0.310500
v -0.052551 -0.163240 0.502399
v -0.052551 0.163240 0.502399
v -0.052551 0.427367 0.310500
v -0.070329 0.935497 0.000000
v -0.070329 0.756833 0.549871
v -0.070329 0.289084 0.889710
v -0.070329 -0.289084 0.889710
v -0.070329 -0.756833 0.549871
v -0.070329 -0.935497 0.000000
v -0.070329 -0.756833 -0.549871
v -0.070329 -0.289084 -0.889710
v -0.070329 0.289084 -0.889710
v -0.070329 0.756833 -0.549871
v 0.000000 1.000000 -0.000000
v 0.000000 0.809017 0.587785
v 0.000000 0.309017 0.951057
v 0.000000 -0.309017 0.951056
v -0.000000 -0.809017 0.587785
v -0.000000 -1.000000 0.000000
v -0.000000 -0.809017 -0.587785
v -0.000000 -0.309017 -0.951056
v -0.000000 0.309017 -0.951056
v 0.000000 0.809017 -0.587785
v -0.070329 0.809017 0.587785
v -0.070329 1.000000 0.000000
v -0.070329 0.309017 0.951057
v -0.070329 -0.309017 0.951056
v -0.070329 -0.809017 0.587785
v -0.070329 -1.000000 0.000000
v -0.070329 -0.809017 -0.587785
v -0.070329 -0.309017 -0.951056
v -0.070329 0.309017 -0.951056
v -0.070329 0.809017 -0.587785
v -0.042470 0.528254 0.000000
v -0.042470 0.427367 0.310500
v -0.042470 0.163239 0.502399
v -0.042470 -0.163240 0.502399
v -0.042470 -0.427367 0.310500
v -0.042470 -0.528254 0.000000
v -0.042470 -0.427366 -0.310500
v -0.042470 -0.163240 -0.502399
v -0.042470 0.163240 -0.502399
v -0.042470 0.427367 -0.310500
v -0.042470 0.756833 0.549871
v -0.042470 0.935497 0.000000
v -0.042470 0.289084 0.889710
v -0.042470 -0.289084 0.889710
v -0.042470 -0.756833 0.549871
v -0.042470 -0.935497 0.000000
v -0.042470 -0.756833 -0.549871
v -0.042470 -0.289084 -0.889710
v -0.042470 0.289084 -0.889710
v -0.042470 0.756833 -0.549871
v -0.052551 0.528254 0.000000
v -0.052551 0.427367 0.310500
v -0.052551 0.163239 0.502399
v -0.052551 -0.163240 0.502399
v -0.052551 -0.427367 0.310500
v -0.052551 -0.528254 0.000000
v -0.052551 -0.427366 -0.310500
v -0.052551 -0.163240 -0.502399
v -0.052551 0.163240 -0.502399
v -0.052551 0.427367 -0.310500
vn 0.0000 0.9511 -0.3090
vn 0.0000 0.5878 -0.8090
vn 0.0000 -0.0000 -1.0000
vn 0.0000 -0.5878 -0.8090
vn 0.0000 -0.9511 -0.3090
vn 0.0000 -0.9511 0.3090
vn 0.0000 -0.5878 0.8090
vn 0.0000 0.0000 1.0000
vn 0.0000 0.5878 0.8090
vn 0.0000 0.9511 0.3090
vn 1.0000 -0.0000 -0.0000
vn -1.0000 0.0000 0.0000
usemtl None
s off
f 149//1 52//1 9//1 99//1
f 99//2 9//2 10//2 100//2
f 100//3 10//3 11//3 101//3
f 101//4 11//4 12//4 102//4
f 102//5 12//5 56//5 154//5
f 154//6 56//6 13//6 103//6
f 103//7 13//7 14//7 104//7
f 104//8 14//8 15//8 105//8
f 5//1 46//1 76//1 29//1
f 105//9 15//9 16//9 106//9
f 106//10 16//10 52//10 149//10
f 41//11 1//11 9//11 52//11
f 1//11 2//11 10//11 9//11
f 2//11 3//11 11//11 10//11
f 3//11 4//11 12//11 11//11
f 4//11 46//11 56//11 12//11
f 46//11 5//11 13//11 56//11
f 5//11 6//11 14//11 13//11
f 6//11 7//11 15//11 14//11
f 7//11 8//11 16//11 15//11
f 8//11 41//11 52//11 16//11
f 22//7 21//7 37//7 38//7
f 3//8 2//8 26//8 27//8
f 41//5 8//5 32//5 72//5
f 6//2 5//2 29//2 30//2
f 4//9 3//9 27//9 28//9
f 1//6 41//6 72//6 25//6
f 7//3 6//3 30//3 31//3
f 46//10 4//10 28//10 76//10
f 2//7 1//7 25//7 26//7
f 8//4 7//4 31//4 32//4
f 61//11 17//11 25//11 72//11
f 17//11 18//11 26//11 25//11
f 18//11 19//11 27//11 26//11
f 19//11 20//11 28//11 27//11
f 20//11 66//11 76//11 28//11
f 66//11 21//11 29//11 76//11
f 21//11 22//11 30//11 29//11
f 22//11 23//11 31//11 30//11
f 23//11 24//11 32//11 31//11
f 24//11 61//11 72//11 32//11
f 33//11 81//11 40//11 39//11 38//11 37//11 86//11 36//11 35//11 34//11
f 20//4 19//4 35//4 36//4
f 17//1 61//1 81//1 33//1
f 23//8 22//8 38//8 39//8
f 66//5 20//5 36//5 86//5
f 18//2 17//2 33//2 34//2
f 24//9 23//9 39//9 40//9
f 21//6 66//6 86//6 37//6
f 19//3 18//3 34//3 35//3
f 61//10 24//10 40//10 81//10
f 149//10 150//10 51//10 52//10
f 150//9 151//9 53//9 51//9
f 151//8 152//8 54//8 53//8
f 152//7 153//7 55//7 54//7
f 153//6 154//6 56//6 55//6
f 154//5 155//5 57//5 56//5
f 155//4 156//4 58//4 57//4
f 156//3 157//3 59//3 58//3
f 47//10 77//10 76//10 46//10
f 157//2 158//2 60//2 59//2
f 158//1 149//1 52//1 60//1
f 41//11 52//11 51//11 42//11
f 42//11 51//11 53//11 43//11
f 43//11 53//11 54//11 44//11
f 44//11 54//11 55//11 45//11
f 45//11 55//11 56//11 46//11
f 46//11 56//11 57//11 47//11
f 47//11 57//11 58//11 48//11
f 48//11 58//11 59//11 49//11
f 49//11 59//11 60//11 50//11
f 50//11 60//11 52//11 41//11
f 68//4 88//4 87//4 67//4
f 44//3 74//3 73//3 43//3
f 41//6 72//6 80//6 50//6
f 48//9 78//9 77//9 47//9
f 45//2 75//2 74//2 44//2
f 42//5 71//5 72//5 41//5
f 49//8 79//8 78//8 48//8
f 46//1 76//1 75//1 45//1
f 43//4 73//4 71//4 42//4
f 50//7 80//7 79//7 49//7
f 61//11 72//11 71//11 62//11
f 62//11 71//11 73//11 63//11
f 63//11 73//11 74//11 64//11
f 64//11 74//11 75//11 65//11
f 65//11 75//11 76//11 66//11
f 66//11 76//11 77//11 67//11
f 67//11 77//11 78//11 68//11
f 68//11 78//11 79//11 69//11
f 69//11 79//11 80//11 70//11
f 70//11 80//11 72//11 61//11
f 82//11 83//11 84//11 85//11 86//11 87//11 88//11 89//11 90//11 81//11
f 65//7 85//7 84//7 64//7
f 62//10 82//10 81//10 61//10
f 69//3 89//3 88//3 68//3
f 66//6 86//6 85//6 65//6
f 63//9 83//9 82//9 62//9
f 70//2 90//2 89//2 69//2
f 67//5 87//5 86//5 66//5
f 64//8 84//8 83//8 63//8
f 61//1 81//1 90//1 70//1
f 149//1 99//1 107//1 160//1
f 99//2 100//2 108//2 107//2
f 100//3 101//3 109//3 108//3
f 101//4 102//4 110//4 109//4
f 102//5 154//5 164//5 110//5
f 154//6 103//6 111//6 164//6
f 103//7 104//7 112//7 111//7
f 104//8 105//8 113//8 112//8
f 95//1 127//1 184//1 144//1
f 105//9 106//9 114//9 113//9
f 106//10 149//10 160//10 114//10
f 139//12 160//12 107//12 91//12
f 91//12 107//12 108//12 92//12
f 92//12 108//12 109//12 93//12
f 93//12 109//12 110//12 94//12
f 94//12 110//12 164//12 144//12
f 144//12 164//12 111//12 95//12
f 95//12 111//12 112//12 96//12
f 96//12 112//12 113//12 97//12
f 97//12 113//12 114//12 98//12
f 98//12 114//12 160//12 139//12
f 120//7 136//7 135//7 119//7
f 93//8 125//8 124//8 92//8
f 139//5 180//5 130//5 98//5
f 96//2 128//2 127//2 95//2
f 94//9 126//9 125//9 93//9
f 91//6 123//6 180//6 139//6
f 97//3 129//3 128//3 96//3
f 144//10 184//10 126//10 94//10
f 92//7 124//7 123//7 91//7
f 98//4 130//4 129//4 97//4
f 169//12 180//12 123//12 115//12
f 115//12 123//12 124//12 116//12
f 116//12 124//12 125//12 117//12
f 117//12 125//12 126//12 118//12
f 118//12 126//12 184//12 174//12
f 174//12 184//12 127//12 119//12
f 119//12 127//12 128//12 120//12
f 120//12 128//12 129//12 121//12
f 121//12 129//12 130//12 122//12
f 122//12 130//12 180//12 169//12
f 131//12 132//12 133//12 134//12 194//12 135//12 136//12 137//12 138//12 189//12
f 118//4 134//4 133//4 117//4
f 115//1 131//1 189//1 169//1
f 121//8 137//8 136//8 120//8
f 174//5 194//5 134//5 118//5
f 116//2 132//2 131//2 115//2
f 122//9 138//9 137//9 121//9
f 119//6 135//6 194//6 174//6
f 117//3 133//3 132//3 116//3
f 169//10 189//10 138//10 122//10
f 149//10 160//10 159//10 150//10
f 150//9 159//9 161//9 151//9
f 151//8 161//8 162//8 152//8
f 152//7 162//7 163//7 153//7
f 153//6 163//6 164//6 154//6
f 154//5 164//5 165//5 155//5
f 155//4 165//4 166//4 156//4
f 156//3 166//3 167//3 157//3
f 145//10 144//10 184//10 185//10
f 157//2 167//2 168//2 158//2
f 158//1 168//1 160//1 149//1
f 139//12 140//12 159//12 160//12
f 140//12 141//12 161//12 159//12
f 141//12 142//12 162//12 161//12
f 142//12 143//12 163//12 162//12
f 143//12 144//12 164//12 163//12
f 144//12 145//12 165//12 164//12
f 145//12 146//12 166//12 165//12
f 146//12 147//12 167//12 166//12
f 147//12 148//12 168//12 167//12
f 148//12 139//12 160//12 168//12
f 176//4 175//4 195//4 196//4
f 142//3 141//3 181//3 182//3
f 139//6 148//6 188//6 180//6
f 146//9 145//9 185//9 186//9
f 143//2 142//2 182//2 183//2
f 140//5 139//5 180//5 179//5
f 147//8 146//8 186//8 187//8
f 144//1 143//1 183//1 184//1
f 141//4 140//4 179//4 181//4
f 148//7 147//7 187//7 188//7
f 169//12 170//12 179//12 180//12
f 170//12 171//12 181//12 179//12
f 171//12 172//12 182//12 181//12
f 172//12 173//12 183//12 182//12
f 173//12 174//12 184//12 183//12
f 174//12 175//12 185//12 184//12
f 175//12 176//12 186//12 185//12
f 176//12 177//12 187//12 186//12
f 177//12 178//12 188//12 187//12
f 178//12 169//12 180//12 188//12
f 190//12 189//12 198//12 197//12 196//12 195//12 194//12 193//12 192//12 191//12
f 173//7 172//7 192//7 193//7
f 170//10 169//10 189//10 190//10
f 177//3 176//3 196//3 197//3
f 174//6 173//6 193//6 194//6
f 171//9 170//9 190//9 191//9
f 178//2 177//2 197//2 198//2
f 175//5 174//5 194//5 195//5
f 172//8 171//8 191//8 192//8
f 169//1 178//1 198//1 189//1
