# Blender v2.78 (sub 0) OBJ File: 'rampa.blend'
# www.blender.org
mtllib rampa.mtl
o Cube
v 1.000000 0.595058 -1.647287
v 1.000000 0.595058 1.647287
v -1.000000 0.595058 1.647287
v -1.000000 0.595058 -1.647288
v 1.000000 1.428964 -1.647287
v -1.000000 1.428964 -1.647287
vt 0.9229 0.9999
vt 0.0001 0.9999
vt 0.0001 0.0001
vt 0.9229 0.0001
vt 0.0000 0.0000
vt 0.0000 0.0000
vt 0.0000 0.0000
vt 0.0000 0.0000
vt 0.0000 0.0000
vt 0.0000 0.0000
vn -0.0000 0.9694 0.2454
vn 0.0000 -1.0000 -0.0000
vn 1.0000 -0.0000 0.0000
vn -1.0000 -0.0000 -0.0000
vn 0.0000 0.0000 -1.0000
usemtl road
s off
f 5/1/1 6/2/1 3/3/1 2/4/1
usemtl road_NONE
f 1/5/2 2/6/2 3/7/2 4/8/2
f 1/5/3 5/9/3 2/6/3
f 3/7/4 6/10/4 4/8/4
f 5/9/5 1/5/5 4/8/5 6/10/5
